<svg xmlns="http://www.w3.org/2000/svg" width="80" height="80" viewBox="0 0 287 282" version="1.1"><path d="M 266.643 25.977 C 257.486 28.885, 253.400 43.021, 259.750 49.821 C 270.245 61.060, 286.985 55.406, 286.996 40.618 C 287.005 29.830, 277.052 22.671, 266.643 25.977" stroke="none" fill="#cc3300" fill-rule="evenodd"/><path d="M 224 1.971 C 207.998 5.417, 187.763 13.778, 169.272 24.585 C 158.415 30.930, 159.345 31.108, 172.089 25.126 C 208.529 8.021, 235.560 7.588, 250.079 23.877 C 255.018 29.419, 255.018 29.419, 256.641 27.103 C 260.553 21.518, 271.828 18.648, 278.654 21.500 C 283.752 23.630, 284.261 23.406, 282.419 19.843 C 273.725 3.030, 251.151 -3.875, 224 1.971 M 137.500 56.909 C 124.703 60.430, 110.948 68.406, 105.714 75.341 C 99.274 83.874, 91.877 98.001, 87.477 110.172 C 85.788 114.844, 85.788 114.844, 81.005 111.408 C 78.375 109.519, 74.502 107.377, 72.399 106.649 C 68.576 105.325, 68.576 105.325, 83.176 90.913 C 97.776 76.500, 97.776 76.500, 98.428 70 C 98.787 66.425, 99.337 62.038, 99.651 60.250 C 100.223 57, 100.223 57, 60.284 57 C 15.653 57, 19.364 55.285, 17.375 76.825 C 16.699 84.151, 16.699 84.151, 37.099 83.822 C 57.500 83.493, 57.500 83.493, 46 94.810 C 25.893 114.597, 26.308 113.917, 29.028 122.590 C 31.352 130, 31.352 130, 37.782 130 C 55.453 130, 64.691 136.624, 60.617 146.375 C 56.017 157.383, 37.149 158.602, 23.428 148.777 C 20.350 146.572, 17.472 145.158, 17.032 145.634 C 2.403 161.482, -1.137 168.768, 3.750 172.969 C 27.264 193.185, 69.376 187.842, 85.976 162.537 C 87.844 159.690, 87.844 159.690, 89.290 163.095 C 100.958 190.565, 145.462 192.390, 168.639 166.350 C 170.779 163.947, 170.779 163.947, 173.334 168.307 C 185.754 189.499, 220.988 191.507, 241.253 172.177 C 267.344 147.291, 273.349 80.701, 251.093 63.073 C 221.803 39.876, 182.660 60.387, 170.483 105.313 C 168.908 111.126, 168.908 111.126, 165.249 107.914 C 156.255 100.017, 139.596 97.045, 128.250 101.313 C 123.109 103.246, 123.071 103.034, 127.476 97.033 C 135.695 85.836, 149.838 81.387, 163.917 85.568 C 166.821 86.430, 169.440 86.894, 169.736 86.597 C 171.187 85.147, 180.987 61.408, 180.577 60.339 C 178.847 55.831, 149.817 53.520, 137.500 56.909 M 282.923 57.122 C 277.844 61.084, 269.201 61.606, 262.750 58.341 C 259.327 56.608, 259.277 57.353, 262.555 61.248 C 268.223 67.984, 274 84.092, 274 93.160 C 274 101.956, 279.509 89.980, 284.597 70.122 C 288.253 55.854, 287.914 53.227, 282.923 57.122 M 214.329 85.941 C 202.347 93.247, 194.768 143.673, 204.150 153.660 C 216.049 166.326, 230.213 143.633, 231.714 109.500 C 232.681 87.493, 226.196 78.705, 214.329 85.941 M 120.308 126.466 C 108.798 131.472, 117.934 155.983, 131.315 155.996 C 135.990 156.001, 144.871 147.794, 145.180 143.183 C 146.163 128.500, 134.169 120.438, 120.308 126.466 M 173 196.144 C 87.572 276.495, 4.476 276.279, 21.647 195.750 C 23.120 188.843, 19.770 193.929, 17.023 202.771 C -15.135 306.280, 90.428 308.548, 195.750 206.611 C 207.809 194.940, 207.625 195.455, 200.014 194.659 C 194.945 194.129, 188.649 192.395, 182 189.698 C 181.020 189.301, 177.901 191.534, 173 196.144" stroke="none" fill="#167dc4" fill-rule="evenodd"/></svg>