<svg width="30" height="20" viewBox="0 0 60 40" xmlns="http://www.w3.org/2000/svg">
  <!-- Red background -->
  <rect width="60" height="40" fill="#b22234"/>

  <!-- White stripes -->
  <g fill="#fff">
    <rect y="4"  width="60" height="4"/>
    <rect y="12" width="60" height="4"/>
    <rect y="20" width="60" height="4"/>
    <rect y="28" width="60" height="4"/>
    <rect y="36" width="60" height="4"/>
  </g>

  <!-- Blue canton -->
  <rect width="24" height="16" fill="#3c3b6e"/>

  <!-- Simplified star field -->
  <g fill="#fff">
    <circle cx="4"  cy="3"  r="0.8"/>
    <circle cx="8"  cy="3"  r="0.8"/>
    <circle cx="12" cy="3"  r="0.8"/>
    <circle cx="16" cy="3"  r="0.8"/>
    <circle cx="20" cy="3"  r="0.8"/>

    <circle cx="6"  cy="7"  r="0.8"/>
    <circle cx="10" cy="7"  r="0.8"/>
    <circle cx="14" cy="7"  r="0.8"/>
    <circle cx="18" cy="7"  r="0.8"/>

    <circle cx="4"  cy="11" r="0.8"/>
    <circle cx="8"  cy="11" r="0.8"/>
    <circle cx="12" cy="11" r="0.8"/>
    <circle cx="16" cy="11" r="0.8"/>
    <circle cx="20" cy="11" r="0.8"/>
  </g>
</svg>
